<svg width="80" height="80" viewBox="0 0 80 80" fill="none" xmlns="http://www.w3.org/2000/svg">
<path d="M6.79997 4.66697C8.31367 4.62268 9.82479 4.66713 11.3333 4.8003C15.2855 5.7327 19.1521 6.9327 22.9333 8.4003C24.7528 7.2934 26.575 6.1823 28.4 5.06697C29.8336 4.44817 31.0336 4.75926 32 6.0003C32.3954 6.85428 32.4845 7.74316 32.2666 8.66697C31.3578 9.45449 30.4245 10.21 29.4666 10.9336C32.028 11.8167 34.5613 12.7501 37.0666 13.7336C38.6402 12.6058 40.2848 11.5836 42 10.667C43.8472 9.8322 45.3138 10.2322 46.4 11.867C46.7101 13.1591 46.3101 14.1813 45.2 14.9336C44.6666 15.2892 44.1333 15.6448 43.6 16.0003C47.6253 17.1199 51.6253 18.3199 55.6 19.6003C60.7333 15.7436 66.2442 12.4992 72.1333 9.86697C73.8256 9.23276 75.5589 8.74388 77.3333 8.4003C78.2045 8.45262 78.9157 8.80817 79.4666 9.46697C79.6445 10.5336 79.6445 11.6003 79.4666 12.667C78.4568 14.1219 77.3456 15.4997 76.1333 16.8003C71.2946 20.4201 66.3168 23.8423 61.2 27.067C60.3586 31.3091 59.781 35.5758 59.4666 39.867C60.5984 38.6555 61.9762 38.1664 63.6 38.4003C65.2354 39.8006 65.3688 41.3563 64 43.067C62.4744 44.3259 60.8744 45.4814 59.2 46.5336C58.7762 49.2878 58.6429 52.0432 58.8 54.8003C59.4648 54.2456 60.1757 53.7566 60.9333 53.3336C63.0864 52.9078 64.2418 53.7966 64.4 56.0003C64.3208 57.1494 63.7874 58.0384 62.8 58.667C61.2445 59.6891 59.6888 60.7115 58.1333 61.7336C58.1485 66.9958 57.4373 72.1515 56 77.2003C54.7904 78.4408 53.3237 78.8408 51.6 78.4003C50.8192 78.0643 50.3304 77.4864 50.1333 76.667C49.6186 65.4195 48.1074 54.3086 45.6 43.3336C45.2786 42.236 44.8786 41.1694 44.4 40.1336C43.796 39.8278 43.1738 39.7832 42.5333 40.0003C37.8666 42.555 33.3333 45.3104 28.9333 48.267C26.4662 49.6971 23.8884 50.8971 21.2 51.867C20.968 56.0528 20.6569 60.2304 20.2666 64.4003C19.1035 66.224 17.5035 67.4686 15.4666 68.1336C14.6849 67.6491 14.1515 66.9379 13.8666 66.0003C12.7637 62.1222 11.8303 58.211 11.0666 54.267C7.29858 51.7376 3.69858 48.9822 0.266634 46.0003C0.0888563 45.7336 0.0888563 45.467 0.266634 45.2003C1.69134 43.5987 3.46911 42.6208 5.59997 42.267C9.53061 43.4142 13.3973 44.7475 17.2 46.267C22.9944 41.2272 29.1277 36.6494 35.6 32.5336C36.1778 31.9558 36.7554 31.3782 37.3333 30.8003C37.5112 30.3558 37.5112 29.9115 37.3333 29.467C36.1269 28.0835 34.749 26.8835 33.2 25.867C24.4658 19.8096 15.3102 14.4318 5.7333 9.73364C5.02605 9.17585 4.80383 8.46476 5.06663 7.6003C5.37522 6.44777 5.95298 5.46998 6.79997 4.66697Z" fill="black"/>
</svg>
