<svg width="81" height="80" viewBox="0 0 81 80" fill="none" xmlns="http://www.w3.org/2000/svg">
<g clip-path="url(#clip0_1575_52)">
<path d="M18.9513 0.133604C19.6679 0.0898468 20.379 0.134291 21.0846 0.266937C21.4856 0.664458 21.7079 1.15335 21.7513 1.7336C21.9717 7.48638 21.9273 13.2197 21.618 18.9336C23.1265 19.0668 24.6376 19.1112 26.1513 19.0669C26.1069 13.1996 26.1513 7.33294 26.2846 1.46694C26.6709 0.208799 27.5153 -0.191201 28.818 0.266937C29.1382 0.50761 29.3606 0.818722 29.4846 1.20027C29.618 7.15515 29.6625 13.1107 29.618 19.0669C31.218 19.0669 32.818 19.0669 34.418 19.0669C34.3734 13.1107 34.418 7.15515 34.5513 1.20027C35.0988 0.189184 35.943 -0.121928 37.0846 0.266937C37.3068 0.489159 37.5292 0.711383 37.7513 0.933604C37.9292 9.64472 37.9292 18.3558 37.7513 27.0669C36.914 29.46 35.2694 30.9712 32.818 31.6003C32.5958 46.444 32.4625 61.2883 32.418 76.1336C31.379 78.7704 29.4678 79.7925 26.6846 79.2003C25.1741 78.5784 24.2408 77.4672 23.8846 75.8669C23.7513 61.1117 23.7069 46.356 23.7513 31.6003C21.4197 31.36 19.6863 30.2043 18.5513 28.1336C18.3735 18.9781 18.3735 9.82249 18.5513 0.666938C18.7426 0.521818 18.8759 0.344039 18.9513 0.133604Z" fill="black"/>
<path d="M55.4852 0.133144C59.7364 -0.521219 62.5364 1.16767 63.8852 5.19981C64.063 28.8443 64.063 52.4886 63.8852 76.1331C61.6641 79.9406 58.9974 80.2961 55.8852 77.1998C55.6553 76.7766 55.4774 76.3321 55.3518 75.8665C55.2185 66.6225 55.174 57.3779 55.2185 48.1331C53.7073 48.1331 52.1964 48.1331 50.6852 48.1331C50.6406 33.9995 50.6852 19.8662 50.8185 5.73314C51.3692 3.0065 52.9249 1.13983 55.4852 0.133144Z" fill="black"/>
</g>
<defs>
<clipPath id="clip0_1575_52">
<rect width="80" height="80" fill="white" transform="translate(0.151367)"/>
</clipPath>
</defs>
</svg>
