<svg width="81" height="80" viewBox="0 0 81 80" fill="none" xmlns="http://www.w3.org/2000/svg">
<path fill-rule="evenodd" clip-rule="evenodd" d="M17.5034 4.13337C32.7036 4.08892 47.9036 4.13337 63.1034 4.2667C66.0943 6.20054 68.45 8.73388 70.17 11.8667C73.538 18.5051 75.6714 25.5273 76.57 32.9334C77.1719 34.0488 77.7052 35.2043 78.17 36.4C78.3479 42.9779 78.3479 49.5555 78.17 56.1334C77.1884 58.9598 75.1884 60.3819 72.17 60.4C72.2146 64.5787 72.17 68.7566 72.0367 72.9334C70.5879 75.508 68.4991 76.1747 65.77 74.9334C65.0751 74.4166 64.5863 73.7499 64.3034 72.9334C64.0599 68.7587 63.9266 64.5808 63.9034 60.4C47.4588 60.4 31.0146 60.4 14.57 60.4C14.6144 64.4011 14.57 68.4011 14.4367 72.4C13.5947 75.111 11.7724 76.1334 8.97002 75.4667C7.77002 74.9779 6.92557 74.1334 6.43669 72.9334C6.34781 68.7555 6.2589 64.5779 6.17002 60.4C3.52879 59.4774 2.10658 57.6107 1.90335 54.8C1.72557 48.9334 1.72557 43.0667 1.90335 37.2C2.18173 35.6214 2.84839 34.2435 3.90335 33.0667C4.82285 25.5206 7.00061 18.3651 10.4367 11.6C12.2089 8.53945 14.5645 6.05057 17.5034 4.13337ZM33.5034 8.6667C43.0375 8.53689 52.5487 8.67022 62.0367 9.0667C64.7367 11.6641 66.7367 14.7308 68.0367 18.2667C69.7791 22.6586 70.9791 27.192 71.6367 31.8667C50.6583 32.0643 29.6804 32.0643 8.70335 31.8667C9.63853 26.4368 11.1941 21.1924 13.37 16.1334C14.5886 13.403 16.322 11.0474 18.57 9.0667C23.5934 9.02182 28.5711 8.88849 33.5034 8.6667ZM69.2367 39.3334C73.8028 39.5878 75.9807 41.9878 75.77 46.5334C74.0895 51.084 71.0228 52.3731 66.57 50.4C63.5423 47.7728 63.1423 44.7952 65.37 41.4667C66.4684 40.363 67.7572 39.6518 69.2367 39.3334ZM9.50335 39.6C14.8099 39.7054 17.0766 42.372 16.3034 47.6C14.1708 51.567 11.1042 52.5003 7.10335 50.4C3.90402 47.1963 3.90402 43.9963 7.10335 40.8C7.85642 40.2456 8.65642 39.8456 9.50335 39.6ZM26.0367 41.7334C35.4588 41.7334 44.8812 41.7334 54.3034 41.7334C54.3034 42.6222 54.3034 43.5112 54.3034 44.4C44.8812 44.4 35.4588 44.4 26.0367 44.4C26.0367 43.5112 26.0367 42.6222 26.0367 41.7334ZM30.8367 47.3334C38.6588 47.3334 46.4812 47.3334 54.3034 47.3334C54.3034 49.1112 54.3034 50.8888 54.3034 52.6667C44.8812 52.6667 35.4588 52.6667 26.0367 52.6667C26.0367 50.9779 26.0367 49.2888 26.0367 47.6C27.6874 47.6862 29.2874 47.5974 30.8367 47.3334Z" fill="black"/>
</svg>
