<svg width="80" height="81" viewBox="0 0 80 81" fill="none" xmlns="http://www.w3.org/2000/svg">
<path d="M20.6665 23.9033C26.9777 23.9033 33.2886 23.9033 39.5998 23.9033C39.5998 27.7255 39.5998 31.5479 39.5998 35.37C33.2886 35.37 26.9777 35.37 20.6665 35.37C20.6665 31.5479 20.6665 27.7255 20.6665 23.9033Z" fill="black"/>
<path d="M40.1328 23.9033C46.444 23.9033 52.7549 23.9033 59.0661 23.9033C59.0661 27.7255 59.0661 31.5479 59.0661 35.37C52.7549 35.37 46.444 35.37 40.1328 35.37C40.1328 31.5479 40.1328 27.7255 40.1328 23.9033Z" fill="black"/>
<path d="M8.93311 35.9028C15.2442 35.9028 21.5553 35.9028 27.8664 35.9028C27.8664 39.725 27.8664 43.5474 27.8664 47.3695C21.5553 47.3695 15.2442 47.3695 8.93311 47.3695C8.93311 43.5474 8.93311 39.725 8.93311 35.9028Z" fill="black"/>
<path d="M28.3999 35.9028C35.422 35.9028 42.4444 35.9028 49.4666 35.9028C49.4666 39.725 49.4666 43.5474 49.4666 47.3695C42.4444 47.3695 35.422 47.3695 28.3999 47.3695C28.3999 43.5474 28.3999 39.725 28.3999 35.9028Z" fill="black"/>
<path d="M49.7334 35.9028C56.0446 35.9028 62.3555 35.9028 68.6667 35.9028C68.6667 39.725 68.6667 43.5474 68.6667 47.3695C62.3555 47.3695 56.0446 47.3695 49.7334 47.3695C49.7334 43.5474 49.7334 39.725 49.7334 35.9028Z" fill="black"/>
<path d="M1.4668 47.6357C7.77792 47.6357 14.089 47.6357 20.4001 47.6357C20.4001 51.4579 20.4001 55.2803 20.4001 59.1024C14.089 59.1024 7.77792 59.1024 1.4668 59.1024C1.4668 55.2803 1.4668 51.4579 1.4668 47.6357Z" fill="black"/>
<path d="M20.6665 47.6357C26.9777 47.6357 33.2886 47.6357 39.5998 47.6357C39.5998 51.4579 39.5998 55.2803 39.5998 59.1024C33.2886 59.1024 26.9777 59.1024 20.6665 59.1024C20.6665 55.2803 20.6665 51.4579 20.6665 47.6357Z" fill="black"/>
<path d="M40.1328 47.6357C46.444 47.6357 52.7549 47.6357 59.0661 47.6357C59.0661 51.4579 59.0661 55.2803 59.0661 59.1024C52.7549 59.1024 46.444 59.1024 40.1328 59.1024C40.1328 55.2803 40.1328 51.4579 40.1328 47.6357Z" fill="black"/>
<path d="M59.6001 47.6357C65.8223 47.6357 72.0447 47.6357 78.2668 47.6357C78.2668 51.4579 78.2668 55.2803 78.2668 59.1024C71.9556 59.1024 65.6447 59.1024 59.3335 59.1024C59.2492 55.2592 59.3383 51.4371 59.6001 47.6357Z" fill="black"/>
</svg>
