<svg width="80" height="81" viewBox="0 0 80 81" fill="none" xmlns="http://www.w3.org/2000/svg">
<path fill-rule="evenodd" clip-rule="evenodd" d="M15.3335 18.9517C16.6668 18.9517 18.0002 18.9517 19.3335 18.9517C19.2891 21.7086 19.3335 24.4642 19.4668 27.2183C22.6339 36.2975 28.9895 41.3642 38.5335 42.4183C47.865 41.4437 54.1762 36.5549 57.4668 27.7517C57.7218 24.8269 57.8106 21.8936 57.7335 18.9517C59.0668 18.9517 60.4002 18.9517 61.7335 18.9517C60.858 27.7522 64.058 34.6413 71.3335 39.6183C73.4228 40.7967 75.645 41.5967 78.0002 42.0183C78.2812 42.3885 78.3255 42.7885 78.1335 43.2183C77.6804 42.9767 77.1914 42.8879 76.6668 42.9517C76.6668 44.3738 76.6668 45.7962 76.6668 47.2183C77.4668 47.2183 78.2668 47.2183 79.0668 47.2183C79.0668 48.3738 79.0668 49.5295 79.0668 50.685C73.289 50.685 67.5114 50.685 61.7335 50.685C61.7335 55.1295 61.7335 59.5738 61.7335 64.0183C60.4002 64.0183 59.0668 64.0183 57.7335 64.0183C57.7335 59.5738 57.7335 55.1295 57.7335 50.685C44.9335 50.685 32.1335 50.685 19.3335 50.685C19.3335 55.1295 19.3335 59.5738 19.3335 64.0183C18.0002 64.0183 16.6668 64.0183 15.3335 64.0183C15.3335 59.5738 15.3335 55.1295 15.3335 50.685C10.3557 50.685 5.37794 50.685 0.400153 50.685C0.400153 49.5295 0.400153 48.3738 0.400153 47.2183C0.933486 47.2183 1.46682 47.2183 2.00015 47.2183C2.00015 45.6183 2.00015 44.0183 2.00015 42.4183C1.37967 42.4623 0.801891 42.6399 0.266819 42.9517C0.058681 42.5666 0.103125 42.2111 0.400153 41.885C11.0134 37.9015 15.9911 30.2573 15.3335 18.9517ZM15.0668 29.3517C15.3328 35.261 15.4217 41.2167 15.3335 47.2183C13.4668 47.2183 11.6002 47.2183 9.73349 47.2183C9.68909 43.9282 9.73351 40.6394 9.86682 37.3517C12.2066 35.0701 13.94 32.4034 15.0668 29.3517ZM19.3335 29.6183C20.7094 32.7189 22.6205 35.4746 25.0668 37.885C25.1142 40.9719 25.2476 44.0386 25.4668 47.085C23.4243 47.2183 21.3799 47.2626 19.3335 47.2183C19.3335 41.3517 19.3335 35.485 19.3335 29.6183ZM61.7335 29.6183C63.1111 32.5573 64.9778 35.1797 67.3335 37.485C66.978 40.685 66.978 43.885 67.3335 47.085C65.469 47.2183 63.6023 47.2626 61.7335 47.2183C61.7335 41.3517 61.7335 35.485 61.7335 29.6183ZM57.4668 29.885C57.7327 35.6167 57.8218 41.3943 57.7335 47.2183C55.6002 47.2183 53.4668 47.2183 51.3335 47.2183C51.245 44.1909 51.3338 41.1687 51.6002 38.1517C54.1732 35.8434 56.129 33.0879 57.4668 29.885ZM68.1335 38.4183C70.31 40.3071 72.7988 41.6405 75.6002 42.4183C75.6002 44.0183 75.6002 45.6183 75.6002 47.2183C73.1114 47.2183 70.6223 47.2183 68.1335 47.2183C68.1335 44.285 68.1335 41.3517 68.1335 38.4183ZM8.13349 38.685C8.58039 41.4034 8.84706 44.2034 8.93349 47.085C6.97994 47.2183 5.02439 47.2626 3.06682 47.2183C2.97882 45.4317 3.0677 43.6541 3.33349 41.885C5.13458 41.0767 6.73458 40.0101 8.13349 38.685ZM26.5335 39.2183C28.0415 40.2397 29.6415 41.1287 31.3335 41.885C31.5994 43.6541 31.6882 45.4317 31.6002 47.2183C29.8202 47.2626 28.0423 47.2183 26.2668 47.085C26.5296 44.485 26.6186 41.8626 26.5335 39.2183ZM50.0002 39.2183C50.2652 41.8367 50.354 44.5034 50.2668 47.2183C48.398 47.2626 46.5314 47.2183 44.6668 47.085C44.8396 45.4551 45.0175 43.8106 45.2002 42.1517C46.9954 41.4349 48.5954 40.457 50.0002 39.2183ZM32.4002 42.4183C36.198 43.3727 40.0204 43.4618 43.8668 42.685C43.8668 44.1962 43.8668 45.7071 43.8668 47.2183C40.0447 47.2183 36.2223 47.2183 32.4002 47.2183C32.4002 45.6183 32.4002 44.0183 32.4002 42.4183Z" fill="black"/>
</svg>
