<svg width="81" height="81" viewBox="0 0 81 81" fill="none" xmlns="http://www.w3.org/2000/svg">
<path fill-rule="evenodd" clip-rule="evenodd" d="M4.16943 8.96973C28.4361 8.96973 52.7028 8.96973 76.9694 8.96973C76.9694 15.1919 76.9694 21.4142 76.9694 27.6364C52.7028 27.6364 28.4361 27.6364 4.16943 27.6364C4.16943 21.4142 4.16943 15.1919 4.16943 8.96973ZM40.7028 20.4364C42.874 20.4312 43.7182 21.4979 43.2361 23.6364C41.9665 25.0529 40.722 25.0529 39.5028 23.6364C38.9806 22.2248 39.3806 21.1581 40.7028 20.4364Z" fill="black"/>
<path fill-rule="evenodd" clip-rule="evenodd" d="M4.1697 28.4365C28.4364 28.4365 52.703 28.4365 76.9697 28.4365C76.9697 34.9253 76.9697 41.4144 76.9697 47.9032C52.7918 47.9477 28.614 47.9032 4.43636 47.7699C4.17122 41.3453 4.08231 34.9008 4.1697 28.4365ZM40.9697 41.2365C43.2374 41.5933 43.9041 42.8379 42.9697 44.9699C41.1238 46.2499 39.835 45.8053 39.103 43.6365C39.2462 42.4304 39.8686 41.6304 40.9697 41.2365Z" fill="black"/>
<path fill-rule="evenodd" clip-rule="evenodd" d="M4.16943 48.7031C28.4361 48.7031 52.7028 48.7031 76.9694 48.7031C76.9694 54.9253 76.9694 61.1477 76.9694 67.3698C52.7028 67.3698 28.4361 67.3698 4.16943 67.3698C4.16943 61.1477 4.16943 54.9253 4.16943 48.7031ZM40.1694 60.7031C43.1102 60.4101 43.999 61.6101 42.8361 64.3031C40.9412 65.3298 39.6966 64.7965 39.1028 62.7031C39.2345 61.901 39.59 61.2343 40.1694 60.7031Z" fill="black"/>
<path fill-rule="evenodd" clip-rule="evenodd" d="M4.16943 67.9033C5.68055 67.9033 7.19165 67.9033 8.70277 67.9033C8.70277 70.2145 8.70277 72.5255 8.70277 74.8367C7.19165 74.8367 5.68055 74.8367 4.16943 74.8367C4.16943 72.5255 4.16943 70.2145 4.16943 67.9033Z" fill="black"/>
<path fill-rule="evenodd" clip-rule="evenodd" d="M72.7031 67.9033C74.1253 67.9033 75.5477 67.9033 76.9698 67.9033C76.9698 70.2145 76.9698 72.5255 76.9698 74.8367C75.5477 74.8367 74.1253 74.8367 72.7031 74.8367C72.7031 72.5255 72.7031 70.2145 72.7031 67.9033Z" fill="black"/>
</svg>
