<svg width="81" height="81" viewBox="0 0 81 81" fill="none" xmlns="http://www.w3.org/2000/svg">
<g clip-path="url(#clip0_1575_66)">
<path fill-rule="evenodd" clip-rule="evenodd" d="M60.285 0.284543C60.8255 0.24131 61.3588 0.285755 61.885 0.417876C63.2866 0.988743 64.709 1.47763 66.1516 1.88454C66.1143 3.185 65.7588 4.385 65.085 5.48454C67.1188 6.63564 68.8967 8.1023 70.4183 9.88454C71.4898 9.21518 72.6455 8.77076 73.885 8.55121C74.5183 10.2636 75.2295 11.9525 76.0183 13.6179C75.9895 13.8691 75.9007 14.0913 75.7516 14.2845C74.7884 14.5884 73.8994 15.0328 73.085 15.6179C73.8146 17.7513 73.9924 19.9291 73.6183 22.1512C74.6218 22.6694 75.6884 23.025 76.8183 23.2179C76.3127 25.3004 75.646 27.3448 74.8183 29.3512C73.8087 28.976 72.7866 28.6205 71.7516 28.2845C70.6138 30.1781 69.1471 31.7781 67.3516 33.0845C67.1738 33.3512 67.1738 33.6179 67.3516 33.8845C67.7879 34.7128 68.1879 35.5573 68.5516 36.4179C68.4628 36.5512 68.3738 36.6845 68.285 36.8179C66.4999 37.4877 64.7666 38.2877 63.085 39.2179C62.5516 38.1512 62.0183 37.0845 61.485 36.0179C59.445 36.7331 57.3559 36.9107 55.2183 36.5512C55.0404 36.64 54.8628 36.7291 54.685 36.8179C54.3748 37.9725 53.8858 39.0392 53.2183 40.0179C51.5042 39.2723 49.7708 38.5611 48.0183 37.8845C47.9295 37.7512 47.8404 37.6179 47.7516 37.4845C48.1956 36.4736 48.5068 35.4515 48.685 34.4179C46.8223 33.1771 45.2223 31.6659 43.885 29.8845C42.7652 30.6469 41.5652 31.1357 40.285 31.3512C39.2983 29.5123 38.4983 27.6011 37.885 25.6179C39.0735 25.4681 40.1402 25.0237 41.085 24.2845C40.5311 22.1146 40.442 19.9368 40.8183 17.7512C39.4791 17.4807 38.2346 16.9919 37.085 16.2845C37.762 14.4311 38.3842 12.5645 38.9516 10.6845C40.2082 10.9847 41.4527 11.3403 42.685 11.7512C43.9068 9.90609 45.329 8.21718 46.9516 6.68454C46.2927 5.50702 45.8482 4.2626 45.6183 2.95121C47.4148 2.4319 49.1482 1.72079 50.8183 0.817877C51.0242 0.85649 51.202 0.945381 51.3516 1.08454C51.6668 2.17333 52.1559 3.1511 52.8183 4.01788C55.002 3.29113 57.2242 3.11337 59.485 3.48454C59.7516 2.41807 60.0183 1.3514 60.285 0.284543ZM55.485 14.9512C60.4938 14.6696 62.6716 16.9807 62.0183 21.8845C60.6423 24.6528 58.4644 25.6751 55.485 24.9512C52.0682 23.143 51.2236 20.5208 52.9516 17.0845C53.6908 16.209 54.5354 15.4979 55.485 14.9512Z" fill="black"/>
<path fill-rule="evenodd" clip-rule="evenodd" d="M28.0182 27.7515C28.6404 27.7515 29.2628 27.7515 29.8849 27.7515C30.0217 29.3795 30.1105 30.9795 30.1516 32.5515C33.0233 32.8424 35.7345 33.6424 38.2849 34.9515C39.615 33.9771 40.7705 32.8213 41.7516 31.4848C43.7097 33.2211 45.6209 34.9989 47.4849 36.8181C46.4758 37.9043 45.498 39.0155 44.5516 40.1515C46.3486 42.5456 47.682 45.1677 48.5516 48.0181C50.1516 48.0181 51.7516 48.0181 53.3516 48.0181C53.4926 50.5936 53.5814 53.1715 53.6182 55.7515C52.0926 55.7165 50.5814 55.8499 49.0849 56.1515C49.0105 59.1317 48.1214 61.8872 46.4182 64.4181C47.5737 65.396 48.7294 66.3736 49.8849 67.3515C48.251 69.4301 46.5177 71.4301 44.6849 73.3515C43.5382 72.472 42.4716 71.4941 41.4849 70.4181C39.1801 72.3483 36.558 73.6816 33.6182 74.4181C33.5025 76.0032 33.5025 77.6032 33.6182 79.2181C31.0342 79.3067 28.4566 79.2176 25.8849 78.9515C25.6322 77.6355 25.5433 76.3021 25.6182 74.9515C22.6804 74.5955 19.9248 73.7067 17.3516 72.2848C16.1943 73.3088 15.0832 74.3755 14.0182 75.4848C12.0262 73.9373 10.1151 72.2928 8.28491 70.5515C9.1076 69.2384 10.0854 68.0384 11.2182 66.9515C9.46699 64.6048 8.22254 62.0272 7.48491 59.2181C5.79912 59.3552 4.11024 59.444 2.41824 59.4848C2.18744 56.8253 2.09855 54.1587 2.15158 51.4848C3.74376 51.2872 5.34376 51.1981 6.95158 51.2181C7.06614 48.2523 7.95502 45.5411 9.61824 43.0848C8.33408 42.0232 7.08966 40.912 5.88491 39.7515C7.57179 37.7093 9.34958 35.7536 11.2182 33.8848C12.3786 35.0011 13.5786 36.0677 14.8182 37.0848C17.0368 35.1976 19.5701 33.9088 22.4182 33.2181C22.2405 31.6181 22.0627 30.0181 21.8849 28.4181C23.9661 28.1696 26.0105 27.9475 28.0182 27.7515ZM32.2849 44.5515C29.0902 43.3587 25.9791 43.5363 22.9516 45.0848C24.4119 43.94 26.1008 43.4067 28.0182 43.4848C29.5745 43.4293 30.9969 43.7851 32.2849 44.5515ZM34.4182 45.8848C35.0404 45.9736 35.3961 46.3293 35.4849 46.9515C35.0404 46.6848 34.6849 46.3293 34.4182 45.8848ZM20.5516 46.9515C20.4882 47.4592 20.2216 47.8149 19.7516 48.0181C19.8149 47.5104 20.0816 47.1547 20.5516 46.9515ZM26.1516 47.2181C32.1926 46.7261 34.9926 49.4816 34.5516 55.4848C33.0833 59.3539 30.2833 60.9093 26.1516 60.1515C21.4669 57.96 20.2669 54.5379 22.5516 49.8848C23.556 48.6976 24.756 47.8085 26.1516 47.2181ZM19.7516 59.4848C20.2216 59.688 20.4882 60.0437 20.5516 60.5515C20.0816 60.3483 19.8149 59.9925 19.7516 59.4848ZM35.4849 60.5515C35.307 61.2627 34.8628 61.7069 34.1516 61.8848C34.507 61.3515 34.9516 60.9069 35.4849 60.5515ZM20.8182 60.8181C21.0849 60.9069 21.2627 61.0848 21.3516 61.3515C20.996 61.3515 20.8182 61.1736 20.8182 60.8181ZM22.6849 62.4181C24.3735 63.1877 26.1513 63.6323 28.0182 63.7515C29.4756 63.6536 30.8977 63.3869 32.2849 62.9515C30.9969 63.7179 29.5745 64.0736 28.0182 64.0181C26.0413 64.0584 24.2636 63.5251 22.6849 62.4181Z" fill="black"/>
</g>
<defs>
<clipPath id="clip0_1575_66">
<rect width="80" height="80" fill="white" transform="translate(0.151367 0.151367)"/>
</clipPath>
</defs>
</svg>
