<svg width="81" height="81" viewBox="0 0 81 81" fill="none" xmlns="http://www.w3.org/2000/svg">
<path d="M22.9513 1.23584C24.818 1.23584 26.6846 1.23584 28.5513 1.23584C28.5513 14.3914 28.5513 27.547 28.5513 40.7025C27.6289 40.6942 26.7401 40.5164 25.8846 40.1692C24.9767 40.3686 24.0879 40.6353 23.218 40.9692C22.9513 27.726 22.8624 14.4815 22.9513 1.23584Z" fill="black"/>
<path d="M22.1514 23.9033C22.4615 29.8135 22.506 35.7689 22.2847 41.77C20.3025 44.2505 20.347 46.6951 22.4181 49.1033C26.8439 51.4799 29.6885 50.2353 30.9514 45.37C30.9509 43.9116 30.4175 42.7116 29.3514 41.77C28.9959 35.9033 28.9959 30.0367 29.3514 24.17C39.6647 35.3724 49.8869 46.6612 60.0181 58.0367C56.2863 59.1473 52.553 60.2585 48.8181 61.37C44.8973 65.0247 40.8973 68.5801 36.8181 72.0367C28.0962 76.5068 19.6518 76.0623 11.4847 70.7033C3.2835 63.9079 0.572402 55.3303 3.3514 44.97C5.1034 40.3692 7.9034 36.5025 11.7514 33.37C15.2702 30.2503 18.7369 27.0948 22.1514 23.9033Z" fill="black"/>
<path d="M45.085 38.8359C55.0348 44.0778 64.3682 50.2557 73.085 57.3693C74.1071 58.5693 75.1295 59.7693 76.1516 60.9693C78.0591 63.8951 78.6815 67.0951 78.0183 70.5693C76.421 76.5439 72.5543 79.2549 66.4183 78.7026C62.7463 77.1887 60.4796 74.4778 59.6183 70.5693C59.0471 67.4111 59.5804 64.4778 61.2183 61.7693C61.9874 58.8599 61.2762 56.3711 59.085 54.3026C54.9874 50.1165 50.9874 45.8498 47.085 41.5026C46.354 40.6415 45.6874 39.7527 45.085 38.8359Z" fill="black"/>
</svg>
