<svg width="81" height="80" viewBox="0 0 81 80" fill="none" xmlns="http://www.w3.org/2000/svg">
<path fill-rule="evenodd" clip-rule="evenodd" d="M40.8543 2.7998C41.121 2.7998 41.3876 2.7998 41.6543 2.7998C41.6543 5.91092 41.6543 9.02202 41.6543 12.1331C43.6119 12.0888 45.5674 12.1332 47.521 12.2665C51.0642 19.367 51.3754 26.6115 48.4543 33.9998C48.0871 34.6009 47.6871 35.1785 47.2543 35.7331C46.0988 35.8219 44.9431 35.911 43.7876 35.9998C45.2098 37.1523 46.3207 38.5299 47.121 40.1331C47.4924 41.8462 47.1815 43.4017 46.1876 44.7998C54.3452 47.7857 62.5228 50.719 70.721 53.5998C73.2082 53.7331 75.6972 53.7774 78.1876 53.7331C78.1876 55.8665 78.1876 57.9998 78.1876 60.1331C75.0783 60.2046 73.7892 61.8046 74.321 64.9331C74.9615 66.7731 76.2506 67.5731 78.1876 67.3331C78.1876 69.3777 78.1876 71.4219 78.1876 73.4665C52.6764 73.4665 27.1655 73.4665 1.6543 73.4665C1.6543 71.5998 1.6543 69.7331 1.6543 67.8665C4.0747 67.7129 5.40803 66.4241 5.6543 63.9998C5.27939 61.7129 3.94606 60.5129 1.6543 60.3998C1.6543 58.1777 1.6543 55.9553 1.6543 53.7331C4.94438 53.7777 8.23328 53.7331 11.521 53.5998C19.5151 50.7571 27.5151 47.9129 35.521 45.0665C35.897 44.9683 36.1636 44.7462 36.321 44.3998C35.537 43.3809 35.1815 42.2254 35.2543 40.9331C36.2444 40.7217 37.2223 40.7217 38.1876 40.9331C38.8383 44.1131 40.6159 44.9574 43.521 43.4665C44.3676 42.4334 44.501 41.3222 43.921 40.1331C42.573 38.9193 41.373 37.5859 40.321 36.1331C38.7284 35.9118 37.1284 35.7785 35.521 35.7331C33.6263 33.1622 32.5151 30.2734 32.1876 27.0665C31.7298 22.0043 32.441 17.1154 34.321 12.3998C36.4759 12.1378 38.6538 12.0489 40.8543 12.1331C40.8543 9.02202 40.8543 5.91092 40.8543 2.7998ZM40.5876 25.4665C43.1335 25.5693 43.8447 26.7691 42.721 29.0665C40.9082 29.8929 39.7527 29.3595 39.2543 27.4665C39.474 26.6203 39.9186 25.9536 40.5876 25.4665ZM68.321 53.7331C50.0988 53.7331 31.8764 53.7331 13.6543 53.7331C21.3396 50.9161 29.073 48.1606 36.8543 45.4665C39.7402 47.2369 42.629 47.2369 45.521 45.4665C53.1327 48.255 60.7327 51.0105 68.321 53.7331Z" fill="black"/>
</svg>
