<svg width="80" height="81" viewBox="0 0 80 81" fill="none" xmlns="http://www.w3.org/2000/svg">
<g clip-path="url(#clip0_1575_122)">
<path fill-rule="evenodd" clip-rule="evenodd" d="M27.8669 0.587464C36.045 0.543025 44.2229 0.58747 52.4002 0.720798C54.3805 2.16618 54.7805 3.9884 53.6002 6.18746C52.4893 7.12802 51.2005 7.4836 49.7335 7.25413C49.689 13.477 49.7335 19.6992 49.8669 25.9208C56.7045 40.8357 63.2823 55.8579 69.6002 70.9875C70.6071 75.4205 68.9629 78.3093 64.6669 79.6541C48.3114 79.832 31.9557 79.832 15.6002 79.6541C11.4898 78.0552 10.0231 75.0773 11.2002 70.7208C17.371 55.9768 23.771 41.3101 30.4002 26.7208C30.7898 20.2458 30.9231 13.7569 30.8002 7.25413C28.6199 7.70016 26.9754 6.98906 25.8669 5.1208C25.4287 3.09623 26.0954 1.58512 27.8669 0.587464ZM44.1335 19.5208C45.5533 19.7423 46.0423 20.5423 45.6002 21.9208C44.3906 22.7853 43.5463 22.5187 43.0669 21.1208C43.1645 20.3859 43.5202 19.8526 44.1335 19.5208ZM37.7335 24.3208C40.9375 24.102 42.3597 25.5687 42.0002 28.7208C40.7575 31.3565 38.8909 31.8899 36.4002 30.3208C34.8066 27.8517 35.2511 25.8517 37.7335 24.3208ZM44.9335 31.5208C48.9669 31.2437 50.9669 33.1104 50.9335 37.1208C49.6597 41.0235 47.1263 42.1344 43.3335 40.4541C41.0258 38.4357 40.6258 36.0803 42.1335 33.3875C42.945 32.5197 43.8783 31.8976 44.9335 31.5208ZM30.8002 40.8541C31.7095 40.8427 32.5983 40.976 33.4669 41.2541C36.9381 42.6779 40.4935 43.8333 44.1335 44.7208C47.2999 44.9907 50.4554 45.2128 53.6002 45.3875C56.9951 52.908 60.2839 60.4637 63.4669 68.0541C64.4378 72.0501 62.9711 74.5835 59.0669 75.6541C46.4447 75.832 33.8223 75.832 21.2002 75.6541C18.4447 74.9435 17.0225 73.1656 16.9335 70.3208C17.1086 68.912 17.4197 67.5341 17.8669 66.1875C21.5085 57.9331 25.1529 49.6664 28.8002 41.3875C29.4954 41.2213 30.1621 41.0435 30.8002 40.8541Z" fill="black"/>
</g>
<defs>
<clipPath id="clip0_1575_122">
<rect width="80" height="80" fill="white" transform="translate(0 0.45459)"/>
</clipPath>
</defs>
</svg>
