<svg width="81" height="81" viewBox="0 0 81 81" fill="none" xmlns="http://www.w3.org/2000/svg">
<path fill-rule="evenodd" clip-rule="evenodd" d="M40.9696 2.15106C45.8835 2.02476 50.7723 2.15809 55.6363 2.55106C55.8259 2.88565 56.048 3.19677 56.3029 3.4844C56.4808 5.61773 56.4808 7.75106 56.3029 9.88439C55.8797 10.7526 55.2131 11.3304 54.3029 11.6177C55.0888 11.6475 55.4443 12.0475 55.3696 12.8177C60.4584 13.736 64.1472 16.4916 66.4363 21.0844C66.6141 39.1289 66.6141 57.1732 66.4363 75.2177C65.6808 77.2177 64.3029 78.5956 62.3029 79.3511C52.8808 79.5289 43.4584 79.5289 34.0363 79.3511C32.0125 78.4831 30.6347 77.0164 29.9029 74.9511C29.8141 71.8399 29.7251 68.7289 29.6363 65.6177C26.3029 69.8399 22.9696 74.0623 19.6363 78.2844C17.5196 79.6609 15.2974 79.8388 12.9696 78.8177C10.2647 76.45 9.86471 73.7391 11.7696 70.6844C14.614 67.1289 17.4585 63.5732 20.3029 60.0177C22.4459 57.4617 24.9792 56.9729 27.9029 58.5511C28.5803 59.1391 29.1581 59.8057 29.6363 60.5511C29.7251 47.4844 29.8141 34.4177 29.9029 21.3511C31.0424 18.4932 32.9536 16.3155 35.6363 14.8177C37.772 14.0178 39.7275 12.9511 41.5029 11.6177C40.7907 11.2844 40.2131 10.7955 39.7696 10.1511C39.5917 7.92885 39.5917 5.70661 39.7696 3.4844C40.0429 2.9012 40.4429 2.45676 40.9696 2.15106ZM43.9029 32.0177C46.7475 32.0177 49.5917 32.0177 52.4363 32.0177C52.4363 35.4844 52.4363 38.9511 52.4363 42.4177C55.9029 42.4177 59.3696 42.4177 62.8363 42.4177C62.8363 45.1732 62.8363 47.9289 62.8363 50.6844C59.3696 50.6844 55.9029 50.6844 52.4363 50.6844C52.4363 54.1511 52.4363 57.6177 52.4363 61.0844C49.5917 61.0844 46.7475 61.0844 43.9029 61.0844C43.9029 57.6177 43.9029 54.1511 43.9029 50.6844C40.5251 50.6844 37.1475 50.6844 33.7696 50.6844C33.8547 47.9513 33.7659 45.2401 33.5029 42.5511C36.9685 42.4177 40.4352 42.3732 43.9029 42.4177C43.9029 38.9511 43.9029 35.4844 43.9029 32.0177ZM24.7029 58.1511C29.1349 59.0761 30.5125 61.654 28.8363 65.8844C27.42 67.7009 25.9533 69.4788 24.4363 71.2177C21.9859 69.1671 19.497 67.1671 16.9696 65.2177C18.5696 63.2623 20.1696 61.3065 21.7696 59.3511C22.7171 58.7855 23.6948 58.3855 24.7029 58.1511Z" fill="black"/>
</svg>
