<svg width="81" height="81" viewBox="0 0 81 81" fill="none" xmlns="http://www.w3.org/2000/svg">
<path fill-rule="evenodd" clip-rule="evenodd" d="M26.9879 1.35163C36.6772 1.30719 46.366 1.35163 56.0545 1.48496C56.2961 1.93815 56.3849 2.42704 56.3212 2.95163C59.7889 2.9072 63.2556 2.95165 66.7212 3.08496C69.1092 4.03533 70.8425 5.67979 71.9212 8.01829C72.0991 22.1516 72.0991 36.285 71.9212 50.4183C71.3292 51.7207 70.5292 52.8764 69.5212 53.885C69.5052 56.1346 69.3273 58.3567 68.9879 60.5516C68.6641 60.9647 68.2641 61.2756 67.7879 61.485C65.6545 61.5738 63.5212 61.6628 61.3879 61.7516C61.6921 63.285 61.7364 64.8407 61.5212 66.4183C60.7527 67.7362 59.5972 68.3586 58.0545 68.285C56.5119 68.3586 55.3564 67.7362 54.5879 66.4183C54.3727 64.8407 54.4169 63.285 54.7212 61.7516C54.2855 61.6199 53.8409 61.5756 53.3879 61.6183C53.5247 62.7623 53.258 63.7844 52.5879 64.685C45.1212 64.8628 37.6545 64.8628 30.1879 64.685C29.7105 63.7295 29.5327 62.7074 29.6545 61.6183C29.1212 61.6183 28.5879 61.6183 28.0545 61.6183C28.1679 63.5156 28.0345 65.3823 27.6545 67.2183C25.3576 68.7839 23.2243 68.6063 21.2545 66.685C21.1213 64.9983 21.0769 63.3095 21.1212 61.6183C15.2702 62.8343 13.1369 60.5676 14.7212 54.8183C12.9379 53.6586 11.649 52.1031 10.8545 50.1516C10.6767 36.285 10.6767 22.4183 10.8545 8.55163C11.6586 6.14739 13.2142 4.41405 15.5212 3.35163C19.1461 2.96608 22.7905 2.83275 26.4545 2.95163C26.3885 2.32273 26.5663 1.7894 26.9879 1.35163ZM18.9879 8.81829C34.0103 8.77384 49.0327 8.81829 64.0545 8.95163C65.3687 9.46544 66.2129 10.3988 66.5879 11.7516C66.846 17.813 66.7572 23.8575 66.3212 29.885C65.6665 31.1247 64.6444 31.8804 63.2545 32.1516C48.3945 32.4148 33.5503 32.326 18.7212 31.885C17.2876 31.341 16.4431 30.3188 16.1879 28.8183C16.0101 23.3072 16.0101 17.7961 16.1879 12.285C16.5943 10.6809 17.5276 9.52536 18.9879 8.81829ZM22.1879 37.885C26.2269 37.7906 28.138 39.746 27.9212 43.7516C26.6084 47.1407 24.2529 48.1631 20.8545 46.8183C17.875 44.3207 17.6972 41.654 20.3212 38.8183C20.9679 38.4948 21.5901 38.1839 22.1879 37.885ZM60.3212 37.885C64.5039 37.8447 66.4151 39.889 66.0545 44.0183C64.4727 47.3604 62.0281 48.205 58.7212 46.5516C56.6137 44.461 56.3025 42.1052 57.7879 39.485C58.546 38.7748 59.3903 38.2415 60.3212 37.885Z" fill="black"/>
<path fill-rule="evenodd" clip-rule="evenodd" d="M21.1212 68.8184C23.8767 68.8184 26.6323 68.8184 29.3879 68.8184C27.5735 72.284 25.5734 75.6618 23.3879 78.9517C20.5194 79.2592 17.6305 79.3037 14.7212 79.085C16.9144 75.6936 19.0478 72.2714 21.1212 68.8184Z" fill="black"/>
<path fill-rule="evenodd" clip-rule="evenodd" d="M53.3876 68.8179C56.1447 68.7736 58.9002 68.8179 61.6543 68.9512C63.821 72.2619 65.9543 75.5952 68.0543 78.9512C65.214 79.2621 62.3695 79.3064 59.521 79.0845C57.6876 75.8163 55.6876 72.6608 53.521 69.6179C53.3922 69.3651 53.3479 69.0984 53.3876 68.8179Z" fill="black"/>
<path fill-rule="evenodd" clip-rule="evenodd" d="M31.7881 70.152C38.1887 70.1074 44.5887 70.152 50.9881 70.2853C52.0087 71.3042 52.7196 72.5042 53.1215 73.8853C45.2972 73.9741 37.4751 73.8853 29.6548 73.6186C30.3732 72.4584 31.0841 71.3029 31.7881 70.152Z" fill="black"/>
<path fill-rule="evenodd" clip-rule="evenodd" d="M28.588 75.7516C37.2107 75.707 45.8328 75.7516 54.4547 75.8849C55.3131 76.7905 56.024 77.8126 56.588 78.9516C46.4557 79.2628 36.3224 79.307 26.188 79.0849C26.8337 77.8281 27.6336 76.7169 28.588 75.7516Z" fill="black"/>
</svg>
