<svg width="81" height="81" viewBox="0 0 81 81" fill="none" xmlns="http://www.w3.org/2000/svg">
<path fill-rule="evenodd" clip-rule="evenodd" d="M34.4541 7.63576C38.2805 7.54707 42.1027 7.63595 45.9208 7.90243C46.7413 10.6304 47.4523 13.386 48.0541 16.1691C52.6773 16.1247 57.2995 16.1691 61.9208 16.3024C62.8096 17.1913 63.6987 18.0802 64.5875 18.9691C65.6504 19.1021 66.7171 19.1466 67.7875 19.1024C67.7875 20.8802 67.7875 22.658 67.7875 24.4358C66.8096 24.4358 65.832 24.4358 64.8541 24.4358C64.8541 24.8802 64.8541 25.3246 64.8541 25.7691C67.0763 25.7691 69.2987 25.7691 71.5208 25.7691C71.6088 27.5558 71.52 29.3334 71.2541 31.1024C61 27.128 50.3779 24.8169 39.3875 24.1691C28.9157 24.8204 18.8269 27.1315 9.12079 31.1024C8.855 29.3334 8.76612 27.5558 8.85412 25.7691C11.0763 25.7691 13.2986 25.7691 15.5208 25.7691C15.5208 25.3246 15.5208 24.8802 15.5208 24.4358C14.543 24.4358 13.5652 24.4358 12.5875 24.4358C12.5875 22.658 12.5875 20.8802 12.5875 19.1024C13.6578 19.1466 14.7245 19.1021 15.7875 18.9691C16.6763 18.0802 17.5652 17.1913 18.4541 16.3024C23.0789 16.2579 27.7011 16.1246 32.3208 15.9024C33.1419 13.1732 33.8528 10.4177 34.4541 7.63576ZM27.2541 19.3691C29.032 19.3691 30.8096 19.3691 32.5875 19.3691C32.5875 20.5246 32.5875 21.6802 32.5875 22.8358C30.8096 22.8358 29.032 22.8358 27.2541 22.8358C27.2541 21.6802 27.2541 20.5246 27.2541 19.3691ZM33.9208 19.3691C35.7875 19.3691 37.6541 19.3691 39.5208 19.3691C39.5208 20.5246 39.5208 21.6802 39.5208 22.8358C37.6541 22.8358 35.7875 22.8358 33.9208 22.8358C33.9208 21.6802 33.9208 20.5246 33.9208 19.3691ZM40.8541 19.3691C42.632 19.3691 44.4096 19.3691 46.1875 19.3691C46.1875 20.5246 46.1875 21.6802 46.1875 22.8358C44.4096 22.8358 42.632 22.8358 40.8541 22.8358C40.8541 21.6802 40.8541 20.5246 40.8541 19.3691ZM47.7875 19.3691C49.5653 19.3691 51.3429 19.3691 53.1208 19.3691C53.1208 20.5246 53.1208 21.6802 53.1208 22.8358C51.3429 22.8358 49.5653 22.8358 47.7875 22.8358C47.7875 21.6802 47.7875 20.5246 47.7875 19.3691ZM54.4541 19.3691C56.232 19.3691 58.0096 19.3691 59.7875 19.3691C59.7875 20.5246 59.7875 21.6802 59.7875 22.8358C58.0096 22.8358 56.232 22.8358 54.4541 22.8358C54.4541 21.6802 54.4541 20.5246 54.4541 19.3691ZM20.3208 19.6358C22.1875 19.6358 24.0541 19.6358 25.9208 19.6358C25.9208 20.7024 25.9208 21.7691 25.9208 22.8358C24.0541 22.8358 22.1875 22.8358 20.3208 22.8358C20.3208 21.7691 20.3208 20.7024 20.3208 19.6358Z" fill="black"/>
<path fill-rule="evenodd" clip-rule="evenodd" d="M33.6537 27.103C35.3425 27.103 37.0316 27.103 38.7204 27.103C38.9447 42.7457 39.1225 58.39 39.2537 74.0364C34.5591 72.2793 29.7591 70.8126 24.8537 69.6364C20.8604 69.03 16.8604 68.5409 12.8537 68.1697C7.56828 59.8276 3.92385 50.8052 1.92041 41.103C2.77814 39.6214 3.93369 38.3772 5.38708 37.3697C13.9096 31.4916 23.3318 28.0694 33.6537 27.103ZM28.3204 34.8364C30.9076 35.1126 32.33 36.5348 32.5871 39.103C32.4983 41.8585 31.0759 43.2809 28.3204 43.3697C25.8182 43.1345 24.396 41.7566 24.0537 39.2364C24.4535 36.7481 25.8757 35.2814 28.3204 34.8364Z" fill="black"/>
<path fill-rule="evenodd" clip-rule="evenodd" d="M41.3877 27.1033C53.1319 26.9937 63.8874 30.1492 73.6543 36.57C75.1986 37.6692 76.6653 38.8692 78.0543 40.17C77.7943 44.5004 76.8165 48.678 75.121 52.7033C72.9018 58.1239 70.2794 63.3239 67.2543 68.3033C60.7935 68.5025 54.4823 69.5692 48.321 71.5033C45.9618 72.4823 43.5618 73.3265 41.121 74.0367C41.1007 58.3913 41.1895 42.7471 41.3877 27.1033ZM49.6543 34.8367C53.6597 35.7601 54.8597 38.0711 53.2543 41.77C51.5133 43.5233 49.5133 43.8345 47.2543 42.7033C45.121 40.3921 45.121 38.0812 47.2543 35.77C48.0434 35.3423 48.8434 35.0311 49.6543 34.8367Z" fill="black"/>
</svg>
